<svg id="visual" viewBox="0 0 960 540" width="960" height="540" xmlns="http://www.w3.org/2000/svg" xmlns:xlink="http://www.w3.org/1999/xlink" version="1.1"><rect x="0" y="0" width="960" height="540" fill="#ffffff"></rect><path d="M353 540L480 540L480 498L311 498L311 457L558 457L558 415L411 415L411 374L385 374L385 332L479 332L479 291L374 291L374 249L514 249L514 208L576 208L576 166L605 166L605 125L581 125L581 83L480 83L480 42L420 42L420 0L960 0L960 42L960 42L960 83L960 83L960 125L960 125L960 166L960 166L960 208L960 208L960 249L960 249L960 291L960 291L960 332L960 332L960 374L960 374L960 415L960 415L960 457L960 457L960 498L960 498L960 540L960 540Z" fill="#7c797e"></path><path d="M710 540L512 540L512 498L629 498L629 457L532 457L532 415L549 415L549 374L722 374L722 332L651 332L651 291L537 291L537 249L495 249L495 208L736 208L736 166L712 166L712 125L657 125L657 83L534 83L534 42L686 42L686 0L960 0L960 42L960 42L960 83L960 83L960 125L960 125L960 166L960 166L960 208L960 208L960 249L960 249L960 291L960 291L960 332L960 332L960 374L960 374L960 415L960 415L960 457L960 457L960 498L960 498L960 540L960 540Z" fill="#3e3c40"></path><path d="M960 540L676 540L676 498L958 498L958 457L819 457L819 415L842 415L842 374L644 374L644 332L680 332L680 291L767 291L767 249L726 249L726 208L670 208L670 166L638 166L638 125L842 125L842 83L908 83L908 42L749 42L749 0L960 0L960 42L960 42L960 83L960 83L960 125L960 125L960 166L960 166L960 208L960 208L960 249L960 249L960 291L960 291L960 332L960 332L960 374L960 374L960 415L960 415L960 457L960 457L960 498L960 498L960 540L960 540Z" fill="#000000"></path></svg>